G75*
G70*
%OFA0B0*%
%FSLAX24Y24*%
%IPPOS*%
%LPD*%
%AMOC8*
5,1,8,0,0,1.08239X$1,22.5*
%
%ADD10C,0.0000*%
D10*
X000100Y000100D02*
X000100Y035096D01*
X118970Y035096D01*
X118970Y000100D01*
X000100Y000100D01*
X002116Y002600D02*
X002118Y002662D01*
X002124Y002725D01*
X002134Y002786D01*
X002148Y002847D01*
X002165Y002907D01*
X002186Y002966D01*
X002212Y003023D01*
X002240Y003078D01*
X002272Y003132D01*
X002308Y003183D01*
X002346Y003233D01*
X002388Y003279D01*
X002432Y003323D01*
X002480Y003364D01*
X002529Y003402D01*
X002581Y003436D01*
X002635Y003467D01*
X002691Y003495D01*
X002749Y003519D01*
X002808Y003540D01*
X002868Y003556D01*
X002929Y003569D01*
X002991Y003578D01*
X003053Y003583D01*
X003116Y003584D01*
X003178Y003581D01*
X003240Y003574D01*
X003302Y003563D01*
X003362Y003548D01*
X003422Y003530D01*
X003480Y003508D01*
X003537Y003482D01*
X003592Y003452D01*
X003645Y003419D01*
X003696Y003383D01*
X003744Y003344D01*
X003790Y003301D01*
X003833Y003256D01*
X003873Y003208D01*
X003910Y003158D01*
X003944Y003105D01*
X003975Y003051D01*
X004001Y002995D01*
X004025Y002937D01*
X004044Y002877D01*
X004060Y002817D01*
X004072Y002755D01*
X004080Y002694D01*
X004084Y002631D01*
X004084Y002569D01*
X004080Y002506D01*
X004072Y002445D01*
X004060Y002383D01*
X004044Y002323D01*
X004025Y002263D01*
X004001Y002205D01*
X003975Y002149D01*
X003944Y002095D01*
X003910Y002042D01*
X003873Y001992D01*
X003833Y001944D01*
X003790Y001899D01*
X003744Y001856D01*
X003696Y001817D01*
X003645Y001781D01*
X003592Y001748D01*
X003537Y001718D01*
X003480Y001692D01*
X003422Y001670D01*
X003362Y001652D01*
X003302Y001637D01*
X003240Y001626D01*
X003178Y001619D01*
X003116Y001616D01*
X003053Y001617D01*
X002991Y001622D01*
X002929Y001631D01*
X002868Y001644D01*
X002808Y001660D01*
X002749Y001681D01*
X002691Y001705D01*
X002635Y001733D01*
X002581Y001764D01*
X002529Y001798D01*
X002480Y001836D01*
X002432Y001877D01*
X002388Y001921D01*
X002346Y001967D01*
X002308Y002017D01*
X002272Y002068D01*
X002240Y002122D01*
X002212Y002177D01*
X002186Y002234D01*
X002165Y002293D01*
X002148Y002353D01*
X002134Y002414D01*
X002124Y002475D01*
X002118Y002538D01*
X002116Y002600D01*
X033616Y002600D02*
X033618Y002662D01*
X033624Y002725D01*
X033634Y002786D01*
X033648Y002847D01*
X033665Y002907D01*
X033686Y002966D01*
X033712Y003023D01*
X033740Y003078D01*
X033772Y003132D01*
X033808Y003183D01*
X033846Y003233D01*
X033888Y003279D01*
X033932Y003323D01*
X033980Y003364D01*
X034029Y003402D01*
X034081Y003436D01*
X034135Y003467D01*
X034191Y003495D01*
X034249Y003519D01*
X034308Y003540D01*
X034368Y003556D01*
X034429Y003569D01*
X034491Y003578D01*
X034553Y003583D01*
X034616Y003584D01*
X034678Y003581D01*
X034740Y003574D01*
X034802Y003563D01*
X034862Y003548D01*
X034922Y003530D01*
X034980Y003508D01*
X035037Y003482D01*
X035092Y003452D01*
X035145Y003419D01*
X035196Y003383D01*
X035244Y003344D01*
X035290Y003301D01*
X035333Y003256D01*
X035373Y003208D01*
X035410Y003158D01*
X035444Y003105D01*
X035475Y003051D01*
X035501Y002995D01*
X035525Y002937D01*
X035544Y002877D01*
X035560Y002817D01*
X035572Y002755D01*
X035580Y002694D01*
X035584Y002631D01*
X035584Y002569D01*
X035580Y002506D01*
X035572Y002445D01*
X035560Y002383D01*
X035544Y002323D01*
X035525Y002263D01*
X035501Y002205D01*
X035475Y002149D01*
X035444Y002095D01*
X035410Y002042D01*
X035373Y001992D01*
X035333Y001944D01*
X035290Y001899D01*
X035244Y001856D01*
X035196Y001817D01*
X035145Y001781D01*
X035092Y001748D01*
X035037Y001718D01*
X034980Y001692D01*
X034922Y001670D01*
X034862Y001652D01*
X034802Y001637D01*
X034740Y001626D01*
X034678Y001619D01*
X034616Y001616D01*
X034553Y001617D01*
X034491Y001622D01*
X034429Y001631D01*
X034368Y001644D01*
X034308Y001660D01*
X034249Y001681D01*
X034191Y001705D01*
X034135Y001733D01*
X034081Y001764D01*
X034029Y001798D01*
X033980Y001836D01*
X033932Y001877D01*
X033888Y001921D01*
X033846Y001967D01*
X033808Y002017D01*
X033772Y002068D01*
X033740Y002122D01*
X033712Y002177D01*
X033686Y002234D01*
X033665Y002293D01*
X033648Y002353D01*
X033634Y002414D01*
X033624Y002475D01*
X033618Y002538D01*
X033616Y002600D01*
X015050Y013600D02*
X015052Y013647D01*
X015058Y013693D01*
X015068Y013739D01*
X015081Y013783D01*
X015099Y013827D01*
X015120Y013868D01*
X015144Y013908D01*
X015172Y013946D01*
X015203Y013981D01*
X015237Y014013D01*
X015273Y014042D01*
X015312Y014068D01*
X015352Y014091D01*
X015395Y014110D01*
X015439Y014126D01*
X015484Y014138D01*
X015530Y014146D01*
X015577Y014150D01*
X015623Y014150D01*
X015670Y014146D01*
X015716Y014138D01*
X015761Y014126D01*
X015805Y014110D01*
X015848Y014091D01*
X015888Y014068D01*
X015927Y014042D01*
X015963Y014013D01*
X015997Y013981D01*
X016028Y013946D01*
X016056Y013908D01*
X016080Y013868D01*
X016101Y013827D01*
X016119Y013783D01*
X016132Y013739D01*
X016142Y013693D01*
X016148Y013647D01*
X016150Y013600D01*
X016148Y013553D01*
X016142Y013507D01*
X016132Y013461D01*
X016119Y013417D01*
X016101Y013373D01*
X016080Y013332D01*
X016056Y013292D01*
X016028Y013254D01*
X015997Y013219D01*
X015963Y013187D01*
X015927Y013158D01*
X015888Y013132D01*
X015848Y013109D01*
X015805Y013090D01*
X015761Y013074D01*
X015716Y013062D01*
X015670Y013054D01*
X015623Y013050D01*
X015577Y013050D01*
X015530Y013054D01*
X015484Y013062D01*
X015439Y013074D01*
X015395Y013090D01*
X015352Y013109D01*
X015312Y013132D01*
X015273Y013158D01*
X015237Y013187D01*
X015203Y013219D01*
X015172Y013254D01*
X015144Y013292D01*
X015120Y013332D01*
X015099Y013373D01*
X015081Y013417D01*
X015068Y013461D01*
X015058Y013507D01*
X015052Y013553D01*
X015050Y013600D01*
X036616Y021600D02*
X036618Y021662D01*
X036624Y021725D01*
X036634Y021786D01*
X036648Y021847D01*
X036665Y021907D01*
X036686Y021966D01*
X036712Y022023D01*
X036740Y022078D01*
X036772Y022132D01*
X036808Y022183D01*
X036846Y022233D01*
X036888Y022279D01*
X036932Y022323D01*
X036980Y022364D01*
X037029Y022402D01*
X037081Y022436D01*
X037135Y022467D01*
X037191Y022495D01*
X037249Y022519D01*
X037308Y022540D01*
X037368Y022556D01*
X037429Y022569D01*
X037491Y022578D01*
X037553Y022583D01*
X037616Y022584D01*
X037678Y022581D01*
X037740Y022574D01*
X037802Y022563D01*
X037862Y022548D01*
X037922Y022530D01*
X037980Y022508D01*
X038037Y022482D01*
X038092Y022452D01*
X038145Y022419D01*
X038196Y022383D01*
X038244Y022344D01*
X038290Y022301D01*
X038333Y022256D01*
X038373Y022208D01*
X038410Y022158D01*
X038444Y022105D01*
X038475Y022051D01*
X038501Y021995D01*
X038525Y021937D01*
X038544Y021877D01*
X038560Y021817D01*
X038572Y021755D01*
X038580Y021694D01*
X038584Y021631D01*
X038584Y021569D01*
X038580Y021506D01*
X038572Y021445D01*
X038560Y021383D01*
X038544Y021323D01*
X038525Y021263D01*
X038501Y021205D01*
X038475Y021149D01*
X038444Y021095D01*
X038410Y021042D01*
X038373Y020992D01*
X038333Y020944D01*
X038290Y020899D01*
X038244Y020856D01*
X038196Y020817D01*
X038145Y020781D01*
X038092Y020748D01*
X038037Y020718D01*
X037980Y020692D01*
X037922Y020670D01*
X037862Y020652D01*
X037802Y020637D01*
X037740Y020626D01*
X037678Y020619D01*
X037616Y020616D01*
X037553Y020617D01*
X037491Y020622D01*
X037429Y020631D01*
X037368Y020644D01*
X037308Y020660D01*
X037249Y020681D01*
X037191Y020705D01*
X037135Y020733D01*
X037081Y020764D01*
X037029Y020798D01*
X036980Y020836D01*
X036932Y020877D01*
X036888Y020921D01*
X036846Y020967D01*
X036808Y021017D01*
X036772Y021068D01*
X036740Y021122D01*
X036712Y021177D01*
X036686Y021234D01*
X036665Y021293D01*
X036648Y021353D01*
X036634Y021414D01*
X036624Y021475D01*
X036618Y021538D01*
X036616Y021600D01*
X059116Y023600D02*
X059118Y023662D01*
X059124Y023725D01*
X059134Y023786D01*
X059148Y023847D01*
X059165Y023907D01*
X059186Y023966D01*
X059212Y024023D01*
X059240Y024078D01*
X059272Y024132D01*
X059308Y024183D01*
X059346Y024233D01*
X059388Y024279D01*
X059432Y024323D01*
X059480Y024364D01*
X059529Y024402D01*
X059581Y024436D01*
X059635Y024467D01*
X059691Y024495D01*
X059749Y024519D01*
X059808Y024540D01*
X059868Y024556D01*
X059929Y024569D01*
X059991Y024578D01*
X060053Y024583D01*
X060116Y024584D01*
X060178Y024581D01*
X060240Y024574D01*
X060302Y024563D01*
X060362Y024548D01*
X060422Y024530D01*
X060480Y024508D01*
X060537Y024482D01*
X060592Y024452D01*
X060645Y024419D01*
X060696Y024383D01*
X060744Y024344D01*
X060790Y024301D01*
X060833Y024256D01*
X060873Y024208D01*
X060910Y024158D01*
X060944Y024105D01*
X060975Y024051D01*
X061001Y023995D01*
X061025Y023937D01*
X061044Y023877D01*
X061060Y023817D01*
X061072Y023755D01*
X061080Y023694D01*
X061084Y023631D01*
X061084Y023569D01*
X061080Y023506D01*
X061072Y023445D01*
X061060Y023383D01*
X061044Y023323D01*
X061025Y023263D01*
X061001Y023205D01*
X060975Y023149D01*
X060944Y023095D01*
X060910Y023042D01*
X060873Y022992D01*
X060833Y022944D01*
X060790Y022899D01*
X060744Y022856D01*
X060696Y022817D01*
X060645Y022781D01*
X060592Y022748D01*
X060537Y022718D01*
X060480Y022692D01*
X060422Y022670D01*
X060362Y022652D01*
X060302Y022637D01*
X060240Y022626D01*
X060178Y022619D01*
X060116Y022616D01*
X060053Y022617D01*
X059991Y022622D01*
X059929Y022631D01*
X059868Y022644D01*
X059808Y022660D01*
X059749Y022681D01*
X059691Y022705D01*
X059635Y022733D01*
X059581Y022764D01*
X059529Y022798D01*
X059480Y022836D01*
X059432Y022877D01*
X059388Y022921D01*
X059346Y022967D01*
X059308Y023017D01*
X059272Y023068D01*
X059240Y023122D01*
X059212Y023177D01*
X059186Y023234D01*
X059165Y023293D01*
X059148Y023353D01*
X059134Y023414D01*
X059124Y023475D01*
X059118Y023538D01*
X059116Y023600D01*
X101126Y031313D02*
X101128Y031359D01*
X101134Y031404D01*
X101143Y031449D01*
X101157Y031493D01*
X101174Y031536D01*
X101195Y031577D01*
X101219Y031616D01*
X101246Y031653D01*
X101276Y031687D01*
X101310Y031719D01*
X101345Y031748D01*
X101383Y031774D01*
X101423Y031796D01*
X101465Y031815D01*
X101509Y031830D01*
X101553Y031842D01*
X101598Y031850D01*
X101644Y031854D01*
X101690Y031854D01*
X101736Y031850D01*
X101781Y031842D01*
X101825Y031830D01*
X101869Y031815D01*
X101911Y031796D01*
X101951Y031774D01*
X101989Y031748D01*
X102024Y031719D01*
X102058Y031687D01*
X102088Y031653D01*
X102115Y031616D01*
X102139Y031577D01*
X102160Y031536D01*
X102177Y031493D01*
X102191Y031449D01*
X102200Y031404D01*
X102206Y031359D01*
X102208Y031313D01*
X102206Y031267D01*
X102200Y031222D01*
X102191Y031177D01*
X102177Y031133D01*
X102160Y031090D01*
X102139Y031049D01*
X102115Y031010D01*
X102088Y030973D01*
X102058Y030939D01*
X102024Y030907D01*
X101989Y030878D01*
X101951Y030852D01*
X101911Y030830D01*
X101869Y030811D01*
X101825Y030796D01*
X101781Y030784D01*
X101736Y030776D01*
X101690Y030772D01*
X101644Y030772D01*
X101598Y030776D01*
X101553Y030784D01*
X101509Y030796D01*
X101465Y030811D01*
X101423Y030830D01*
X101383Y030852D01*
X101345Y030878D01*
X101310Y030907D01*
X101276Y030939D01*
X101246Y030973D01*
X101219Y031010D01*
X101195Y031049D01*
X101174Y031090D01*
X101157Y031133D01*
X101143Y031177D01*
X101134Y031222D01*
X101128Y031267D01*
X101126Y031313D01*
X110181Y031313D02*
X110183Y031359D01*
X110189Y031404D01*
X110198Y031449D01*
X110212Y031493D01*
X110229Y031536D01*
X110250Y031577D01*
X110274Y031616D01*
X110301Y031653D01*
X110331Y031687D01*
X110365Y031719D01*
X110400Y031748D01*
X110438Y031774D01*
X110478Y031796D01*
X110520Y031815D01*
X110564Y031830D01*
X110608Y031842D01*
X110653Y031850D01*
X110699Y031854D01*
X110745Y031854D01*
X110791Y031850D01*
X110836Y031842D01*
X110880Y031830D01*
X110924Y031815D01*
X110966Y031796D01*
X111006Y031774D01*
X111044Y031748D01*
X111079Y031719D01*
X111113Y031687D01*
X111143Y031653D01*
X111170Y031616D01*
X111194Y031577D01*
X111215Y031536D01*
X111232Y031493D01*
X111246Y031449D01*
X111255Y031404D01*
X111261Y031359D01*
X111263Y031313D01*
X111261Y031267D01*
X111255Y031222D01*
X111246Y031177D01*
X111232Y031133D01*
X111215Y031090D01*
X111194Y031049D01*
X111170Y031010D01*
X111143Y030973D01*
X111113Y030939D01*
X111079Y030907D01*
X111044Y030878D01*
X111006Y030852D01*
X110966Y030830D01*
X110924Y030811D01*
X110880Y030796D01*
X110836Y030784D01*
X110791Y030776D01*
X110745Y030772D01*
X110699Y030772D01*
X110653Y030776D01*
X110608Y030784D01*
X110564Y030796D01*
X110520Y030811D01*
X110478Y030830D01*
X110438Y030852D01*
X110400Y030878D01*
X110365Y030907D01*
X110331Y030939D01*
X110301Y030973D01*
X110274Y031010D01*
X110250Y031049D01*
X110229Y031090D01*
X110212Y031133D01*
X110198Y031177D01*
X110189Y031222D01*
X110183Y031267D01*
X110181Y031313D01*
X115116Y032600D02*
X115118Y032662D01*
X115124Y032725D01*
X115134Y032786D01*
X115148Y032847D01*
X115165Y032907D01*
X115186Y032966D01*
X115212Y033023D01*
X115240Y033078D01*
X115272Y033132D01*
X115308Y033183D01*
X115346Y033233D01*
X115388Y033279D01*
X115432Y033323D01*
X115480Y033364D01*
X115529Y033402D01*
X115581Y033436D01*
X115635Y033467D01*
X115691Y033495D01*
X115749Y033519D01*
X115808Y033540D01*
X115868Y033556D01*
X115929Y033569D01*
X115991Y033578D01*
X116053Y033583D01*
X116116Y033584D01*
X116178Y033581D01*
X116240Y033574D01*
X116302Y033563D01*
X116362Y033548D01*
X116422Y033530D01*
X116480Y033508D01*
X116537Y033482D01*
X116592Y033452D01*
X116645Y033419D01*
X116696Y033383D01*
X116744Y033344D01*
X116790Y033301D01*
X116833Y033256D01*
X116873Y033208D01*
X116910Y033158D01*
X116944Y033105D01*
X116975Y033051D01*
X117001Y032995D01*
X117025Y032937D01*
X117044Y032877D01*
X117060Y032817D01*
X117072Y032755D01*
X117080Y032694D01*
X117084Y032631D01*
X117084Y032569D01*
X117080Y032506D01*
X117072Y032445D01*
X117060Y032383D01*
X117044Y032323D01*
X117025Y032263D01*
X117001Y032205D01*
X116975Y032149D01*
X116944Y032095D01*
X116910Y032042D01*
X116873Y031992D01*
X116833Y031944D01*
X116790Y031899D01*
X116744Y031856D01*
X116696Y031817D01*
X116645Y031781D01*
X116592Y031748D01*
X116537Y031718D01*
X116480Y031692D01*
X116422Y031670D01*
X116362Y031652D01*
X116302Y031637D01*
X116240Y031626D01*
X116178Y031619D01*
X116116Y031616D01*
X116053Y031617D01*
X115991Y031622D01*
X115929Y031631D01*
X115868Y031644D01*
X115808Y031660D01*
X115749Y031681D01*
X115691Y031705D01*
X115635Y031733D01*
X115581Y031764D01*
X115529Y031798D01*
X115480Y031836D01*
X115432Y031877D01*
X115388Y031921D01*
X115346Y031967D01*
X115308Y032017D01*
X115272Y032068D01*
X115240Y032122D01*
X115212Y032177D01*
X115186Y032234D01*
X115165Y032293D01*
X115148Y032353D01*
X115134Y032414D01*
X115124Y032475D01*
X115118Y032538D01*
X115116Y032600D01*
X110181Y008478D02*
X110183Y008524D01*
X110189Y008569D01*
X110198Y008614D01*
X110212Y008658D01*
X110229Y008701D01*
X110250Y008742D01*
X110274Y008781D01*
X110301Y008818D01*
X110331Y008852D01*
X110365Y008884D01*
X110400Y008913D01*
X110438Y008939D01*
X110478Y008961D01*
X110520Y008980D01*
X110564Y008995D01*
X110608Y009007D01*
X110653Y009015D01*
X110699Y009019D01*
X110745Y009019D01*
X110791Y009015D01*
X110836Y009007D01*
X110880Y008995D01*
X110924Y008980D01*
X110966Y008961D01*
X111006Y008939D01*
X111044Y008913D01*
X111079Y008884D01*
X111113Y008852D01*
X111143Y008818D01*
X111170Y008781D01*
X111194Y008742D01*
X111215Y008701D01*
X111232Y008658D01*
X111246Y008614D01*
X111255Y008569D01*
X111261Y008524D01*
X111263Y008478D01*
X111261Y008432D01*
X111255Y008387D01*
X111246Y008342D01*
X111232Y008298D01*
X111215Y008255D01*
X111194Y008214D01*
X111170Y008175D01*
X111143Y008138D01*
X111113Y008104D01*
X111079Y008072D01*
X111044Y008043D01*
X111006Y008017D01*
X110966Y007995D01*
X110924Y007976D01*
X110880Y007961D01*
X110836Y007949D01*
X110791Y007941D01*
X110745Y007937D01*
X110699Y007937D01*
X110653Y007941D01*
X110608Y007949D01*
X110564Y007961D01*
X110520Y007976D01*
X110478Y007995D01*
X110438Y008017D01*
X110400Y008043D01*
X110365Y008072D01*
X110331Y008104D01*
X110301Y008138D01*
X110274Y008175D01*
X110250Y008214D01*
X110229Y008255D01*
X110212Y008298D01*
X110198Y008342D01*
X110189Y008387D01*
X110183Y008432D01*
X110181Y008478D01*
X101126Y008478D02*
X101128Y008524D01*
X101134Y008569D01*
X101143Y008614D01*
X101157Y008658D01*
X101174Y008701D01*
X101195Y008742D01*
X101219Y008781D01*
X101246Y008818D01*
X101276Y008852D01*
X101310Y008884D01*
X101345Y008913D01*
X101383Y008939D01*
X101423Y008961D01*
X101465Y008980D01*
X101509Y008995D01*
X101553Y009007D01*
X101598Y009015D01*
X101644Y009019D01*
X101690Y009019D01*
X101736Y009015D01*
X101781Y009007D01*
X101825Y008995D01*
X101869Y008980D01*
X101911Y008961D01*
X101951Y008939D01*
X101989Y008913D01*
X102024Y008884D01*
X102058Y008852D01*
X102088Y008818D01*
X102115Y008781D01*
X102139Y008742D01*
X102160Y008701D01*
X102177Y008658D01*
X102191Y008614D01*
X102200Y008569D01*
X102206Y008524D01*
X102208Y008478D01*
X102206Y008432D01*
X102200Y008387D01*
X102191Y008342D01*
X102177Y008298D01*
X102160Y008255D01*
X102139Y008214D01*
X102115Y008175D01*
X102088Y008138D01*
X102058Y008104D01*
X102024Y008072D01*
X101989Y008043D01*
X101951Y008017D01*
X101911Y007995D01*
X101869Y007976D01*
X101825Y007961D01*
X101781Y007949D01*
X101736Y007941D01*
X101690Y007937D01*
X101644Y007937D01*
X101598Y007941D01*
X101553Y007949D01*
X101509Y007961D01*
X101465Y007976D01*
X101423Y007995D01*
X101383Y008017D01*
X101345Y008043D01*
X101310Y008072D01*
X101276Y008104D01*
X101246Y008138D01*
X101219Y008175D01*
X101195Y008214D01*
X101174Y008255D01*
X101157Y008298D01*
X101143Y008342D01*
X101134Y008387D01*
X101128Y008432D01*
X101126Y008478D01*
X115116Y002600D02*
X115118Y002662D01*
X115124Y002725D01*
X115134Y002786D01*
X115148Y002847D01*
X115165Y002907D01*
X115186Y002966D01*
X115212Y003023D01*
X115240Y003078D01*
X115272Y003132D01*
X115308Y003183D01*
X115346Y003233D01*
X115388Y003279D01*
X115432Y003323D01*
X115480Y003364D01*
X115529Y003402D01*
X115581Y003436D01*
X115635Y003467D01*
X115691Y003495D01*
X115749Y003519D01*
X115808Y003540D01*
X115868Y003556D01*
X115929Y003569D01*
X115991Y003578D01*
X116053Y003583D01*
X116116Y003584D01*
X116178Y003581D01*
X116240Y003574D01*
X116302Y003563D01*
X116362Y003548D01*
X116422Y003530D01*
X116480Y003508D01*
X116537Y003482D01*
X116592Y003452D01*
X116645Y003419D01*
X116696Y003383D01*
X116744Y003344D01*
X116790Y003301D01*
X116833Y003256D01*
X116873Y003208D01*
X116910Y003158D01*
X116944Y003105D01*
X116975Y003051D01*
X117001Y002995D01*
X117025Y002937D01*
X117044Y002877D01*
X117060Y002817D01*
X117072Y002755D01*
X117080Y002694D01*
X117084Y002631D01*
X117084Y002569D01*
X117080Y002506D01*
X117072Y002445D01*
X117060Y002383D01*
X117044Y002323D01*
X117025Y002263D01*
X117001Y002205D01*
X116975Y002149D01*
X116944Y002095D01*
X116910Y002042D01*
X116873Y001992D01*
X116833Y001944D01*
X116790Y001899D01*
X116744Y001856D01*
X116696Y001817D01*
X116645Y001781D01*
X116592Y001748D01*
X116537Y001718D01*
X116480Y001692D01*
X116422Y001670D01*
X116362Y001652D01*
X116302Y001637D01*
X116240Y001626D01*
X116178Y001619D01*
X116116Y001616D01*
X116053Y001617D01*
X115991Y001622D01*
X115929Y001631D01*
X115868Y001644D01*
X115808Y001660D01*
X115749Y001681D01*
X115691Y001705D01*
X115635Y001733D01*
X115581Y001764D01*
X115529Y001798D01*
X115480Y001836D01*
X115432Y001877D01*
X115388Y001921D01*
X115346Y001967D01*
X115308Y002017D01*
X115272Y002068D01*
X115240Y002122D01*
X115212Y002177D01*
X115186Y002234D01*
X115165Y002293D01*
X115148Y002353D01*
X115134Y002414D01*
X115124Y002475D01*
X115118Y002538D01*
X115116Y002600D01*
X001616Y032600D02*
X001618Y032662D01*
X001624Y032725D01*
X001634Y032786D01*
X001648Y032847D01*
X001665Y032907D01*
X001686Y032966D01*
X001712Y033023D01*
X001740Y033078D01*
X001772Y033132D01*
X001808Y033183D01*
X001846Y033233D01*
X001888Y033279D01*
X001932Y033323D01*
X001980Y033364D01*
X002029Y033402D01*
X002081Y033436D01*
X002135Y033467D01*
X002191Y033495D01*
X002249Y033519D01*
X002308Y033540D01*
X002368Y033556D01*
X002429Y033569D01*
X002491Y033578D01*
X002553Y033583D01*
X002616Y033584D01*
X002678Y033581D01*
X002740Y033574D01*
X002802Y033563D01*
X002862Y033548D01*
X002922Y033530D01*
X002980Y033508D01*
X003037Y033482D01*
X003092Y033452D01*
X003145Y033419D01*
X003196Y033383D01*
X003244Y033344D01*
X003290Y033301D01*
X003333Y033256D01*
X003373Y033208D01*
X003410Y033158D01*
X003444Y033105D01*
X003475Y033051D01*
X003501Y032995D01*
X003525Y032937D01*
X003544Y032877D01*
X003560Y032817D01*
X003572Y032755D01*
X003580Y032694D01*
X003584Y032631D01*
X003584Y032569D01*
X003580Y032506D01*
X003572Y032445D01*
X003560Y032383D01*
X003544Y032323D01*
X003525Y032263D01*
X003501Y032205D01*
X003475Y032149D01*
X003444Y032095D01*
X003410Y032042D01*
X003373Y031992D01*
X003333Y031944D01*
X003290Y031899D01*
X003244Y031856D01*
X003196Y031817D01*
X003145Y031781D01*
X003092Y031748D01*
X003037Y031718D01*
X002980Y031692D01*
X002922Y031670D01*
X002862Y031652D01*
X002802Y031637D01*
X002740Y031626D01*
X002678Y031619D01*
X002616Y031616D01*
X002553Y031617D01*
X002491Y031622D01*
X002429Y031631D01*
X002368Y031644D01*
X002308Y031660D01*
X002249Y031681D01*
X002191Y031705D01*
X002135Y031733D01*
X002081Y031764D01*
X002029Y031798D01*
X001980Y031836D01*
X001932Y031877D01*
X001888Y031921D01*
X001846Y031967D01*
X001808Y032017D01*
X001772Y032068D01*
X001740Y032122D01*
X001712Y032177D01*
X001686Y032234D01*
X001665Y032293D01*
X001648Y032353D01*
X001634Y032414D01*
X001624Y032475D01*
X001618Y032538D01*
X001616Y032600D01*
M02*
