%
M48
M72
T01C0.0157
T02C0.0236
T03C0.0315
T04C0.0320
T05C0.0354
T06C0.0360
T07C0.0394
T08C0.0400
T09C0.0440
T10C0.0472
T11C0.0512
T12C0.0520
T13C0.0591
T14C0.0866
T15C0.1083
T16C0.1100
T17C0.1969
%
T01
X18975Y5600
X21225Y5975
X24600Y3725
X27850Y4850
X45475Y9225
X53225Y9225
X53600Y8975
X46100Y13725
X40600Y13725
X52975Y14100
X53475Y14850
X62850Y16100
X61850Y18850
X62600Y19350
X75475Y23850
X72600Y25600
X82100Y21975
X82850Y21975
X84100Y21475
X84600Y21975
X88725Y23350
X89475Y24600
X89475Y25600
X89475Y26725
X93225Y26725
X93100Y27725
X95100Y27725
X105600Y27600
X106850Y28100
X106850Y27100
X106850Y26600
X109350Y26100
X110600Y26600
X110600Y27100
X111725Y27225
X110600Y27600
X107475Y29100
X106850Y29100
X110100Y29475
X110600Y25600
X106850Y25600
X105600Y23600
X94100Y20225
X92850Y18725
X92350Y18225
X89725Y17725
X89475Y17350
X89850Y16725
X88600Y16475
X86225Y15725
X84850Y15350
X83600Y15225
X86725Y15100
X85850Y14100
X88725Y14600
X89475Y14100
X92600Y13600
X92850Y13975
X92600Y13100
X88725Y12850
X86475Y12850
X85475Y12850
X88475Y11850
X86350Y10850
X86850Y10100
X99850Y6475
X97350Y4600
X97600Y4225
X96975Y3600
X102100Y2850
X100350Y1100
X66850Y1100
X106100Y11725
X105600Y13100
X104600Y14100
X108975Y14100
X108975Y13475
X108975Y14850
X109350Y15100
X110600Y15600
X110600Y16100
X110975Y16350
X111600Y15975
X109225Y16100
X110600Y17100
X110600Y17600
X110600Y18100
X110100Y18975
X98975Y17225
X97225Y17350
X96600Y16725
X93725Y17100
X88475Y18600
X88725Y19350
X86600Y18100
X85850Y18100
X84600Y18975
X83850Y18600
X83225Y18850
X82600Y19100
X82100Y19350
X81100Y19725
X82225Y17850
X82725Y17475
X93725Y15225
X98850Y14975
X99725Y14225
X90975Y21600
X84475Y24725
X83600Y25100
X67725Y31225
X68225Y34100
X56725Y29100
X39975Y25975
X19600Y26475
X97350Y32725
T02
X104600Y31600
X82600Y27600
X76100Y28100
X79100Y22600
X82225Y21350
X80975Y20600
X82600Y12600
X89600Y8600
X106600Y9100
X112600Y7100
X113100Y4600
X34600Y25100
X7100Y33100
T03
X12600Y22600
X16600Y22600
X16600Y20600
X12600Y20600
T04
X4600Y20600
X4600Y23600
X10100Y25600
X12100Y26100
X12850Y26600
X12100Y27100
X10100Y28600
X24600Y32600
X25600Y32600
X42100Y21600
X46100Y21600
X78600Y16100
X78600Y15100
X78600Y14100
X78600Y13100
X78600Y12100
X78600Y11100
X78600Y10100
X78600Y9100
X78600Y8100
X81600Y8100
X81600Y9100
X81600Y10100
X81600Y11100
X81600Y12100
X81600Y13100
X84100Y13600
X86100Y13600
X87600Y13100
X87600Y14100
X86100Y14600
X87600Y15100
X87600Y16100
X87600Y17100
X87600Y18100
X87600Y19100
X87600Y20100
X86100Y20600
X87600Y21100
X86100Y21600
X87600Y22100
X87600Y23100
X86100Y23100
X86100Y24100
X87600Y24100
X87600Y25100
X87600Y26100
X90600Y26100
X92100Y26100
X93100Y26100
X95100Y25600
X95100Y24600
X95100Y23600
X92600Y24050
X90600Y24100
X90600Y23100
X90600Y22100
X92600Y22150
X95100Y22600
X95100Y21600
X95100Y20600
X95100Y19600
X93100Y19600
X92100Y19600
X90600Y19100
X90600Y18100
X90600Y17100
X90600Y16100
X90600Y15100
X90600Y14100
X90600Y13100
X95100Y12600
X95100Y11600
X95100Y10600
X92600Y10100
X90600Y10100
X90600Y9100
X92600Y9100
X92600Y8100
X90600Y8100
X87600Y8100
X86100Y8600
X87600Y9100
X87600Y10100
X87600Y11100
X90600Y11100
X92600Y11100
X95100Y9600
X98100Y9600
X98100Y10600
X98100Y11600
X98100Y12600
X98100Y13600
X98100Y14600
X98100Y15600
X98100Y16600
X98100Y17600
X95100Y17600
X95100Y16600
X95100Y15600
X95100Y14600
X95100Y13600
X84100Y14600
X81600Y14100
X81600Y15100
X81600Y16100
X83700Y17100
X84500Y17100
X90600Y20100
X90600Y21100
X98100Y20600
X98100Y19600
X98100Y21600
X98100Y22600
X98100Y23600
X98100Y24600
X99600Y24600
X99600Y25600
X98100Y25600
X90600Y25100
X96100Y28100
X97850Y28600
X98600Y29100
X96100Y29100
X98600Y28100
X90100Y28600
X90100Y29600
X96600Y31100
X98100Y31100
X98100Y32100
X96600Y32100
X107600Y21600
X108600Y21600
X108600Y11100
X107600Y11100
X105100Y9100
X104100Y9100
X98300Y6600
X96900Y6600
X101600Y6100
X104600Y6100
X106100Y6100
X109100Y6100
X114600Y6100
X116600Y6100
X116600Y5100
X114600Y5100
X112600Y3500
X112600Y2700
X109600Y2600
X108600Y2600
X107600Y2600
X104100Y2400
X100600Y2600
X99600Y2600
X98600Y2600
X104100Y3800
X86100Y5600
X84100Y5600
X83100Y5600
X81600Y5600
X80600Y5600
X60100Y3100
X56100Y3100
X44100Y3100
X40100Y3100
X7350Y9100
X7350Y13100
T05
X54850Y10475
X26975Y27475
X17600Y29250
X17600Y32950
T06
X10100Y31600
X10100Y30100
X14600Y27100
X14600Y25600
X60600Y21600
X62100Y21600
X86600Y28600
X88100Y28600
X92100Y28100
X94100Y28100
X94100Y29600
X92100Y29600
X115600Y28100
X116600Y28100
X116600Y27100
X115600Y27100
X115600Y26100
X116600Y26100
X116600Y25100
X115600Y25100
X115600Y24100
X116600Y24100
X116600Y23100
X115600Y23100
X115600Y22100
X116600Y22100
X116600Y21100
X115600Y21100
X115600Y20100
X116600Y20100
X116600Y19100
X115600Y19100
X115600Y18100
X116600Y18100
X116600Y17100
X115600Y17100
X115600Y16100
X116600Y16100
X116600Y15100
X115600Y15100
X115600Y14100
X116600Y14100
X116600Y13100
X115600Y13100
X115600Y12100
X116600Y12100
X116600Y11100
X115600Y11100
X115600Y10100
X116600Y10100
X116600Y9100
X115600Y9100
X93600Y6100
X92100Y6100
X89600Y6100
X88100Y6100
X84100Y7100
X84100Y8600
X84100Y10100
X86100Y10100
X86100Y11600
X84100Y11600
X79100Y6100
X77600Y6100
T07
X25100Y29100
X25100Y30100
T08
X22100Y27600
X19100Y27550
X10600Y23600
X7600Y23600
X19100Y21650
X22100Y21600
X28600Y22100
X34600Y22100
X34600Y25600
X33600Y25600
X32600Y25600
X50600Y21600
X57600Y21600
X56550Y17600
X50650Y17600
X47100Y17600
X40100Y17600
X41100Y12100
X43600Y12100
X46600Y12100
X49100Y12100
X52100Y12100
X54600Y12100
X57600Y12100
X57600Y8100
X57600Y7100
X54600Y7100
X52100Y7100
X49100Y7100
X46600Y7100
X46600Y8100
X49100Y8100
X52100Y8100
X54600Y8100
X43600Y8100
X41100Y8100
X41100Y7100
X43600Y7100
X38100Y7100
X38100Y8100
X38100Y12100
X11100Y13550
X3100Y12600
X3100Y14570
X3100Y16550
X7600Y16600
X10600Y16600
X3100Y18510
X4600Y29100
X6600Y29100
X67600Y33100
X68600Y33100
X69600Y33100
X70600Y33100
X71600Y33100
X72600Y33100
X101163Y29395
X102163Y29395
X102163Y28395
X101163Y28395
X101163Y27395
X102163Y27395
X102163Y26395
X101163Y26395
X101163Y25395
X102163Y25395
X102163Y24395
X101163Y24395
X101163Y23395
X102163Y23395
X102163Y22395
X101163Y22395
X101163Y21395
X102163Y21395
X102163Y20395
X101163Y20395
X101163Y19395
X102163Y19395
X102163Y18395
X101163Y18395
X101163Y17395
X102163Y17395
X102163Y16395
X101163Y16395
X101163Y15395
X102163Y15395
X102163Y14395
X101163Y14395
X101163Y13395
X102163Y13395
X102163Y12395
X101163Y12395
X101163Y11395
X102163Y11395
X102163Y10395
X101163Y10395
X11100Y7650
T09
X2100Y20600
X2100Y24600
T10
X25100Y25100
X25100Y23100
T11
X25624Y17021
X28576Y17021
X32124Y17021
X35076Y17021
X22076Y17021
X19124Y17021
X19124Y11116
X22076Y11116
X25624Y11116
X28576Y11116
X32124Y11116
X35076Y11116
X35076Y9147
X32124Y9147
X28576Y9147
X25624Y9147
X22076Y9147
X19124Y9147
X19124Y7179
X22076Y7179
X25624Y7179
X28576Y7179
X32124Y7179
X35076Y7179
X50092Y3110
X52092Y3110
X63592Y3110
X65592Y3110
X67592Y3110
X78592Y3110
X80592Y3110
X82592Y3110
X84592Y3110
X86592Y3110
X88592Y3110
X90592Y3110
X92592Y3110
X94592Y3110
X76576Y7179
X73624Y7179
X70076Y7179
X67124Y7179
X63576Y7179
X60624Y7179
X60624Y9147
X63576Y9147
X67124Y9147
X70076Y9147
X73624Y9147
X76576Y9147
X76576Y11116
X73624Y11116
X70076Y11116
X67124Y11116
X63576Y11116
X60624Y11116
X60624Y17021
X63576Y17021
X67124Y17021
X70076Y17021
X73624Y17021
X76576Y17021
X83340Y20256
X83340Y23405
X65624Y20256
X65624Y28444
X78100Y32090
X80100Y32090
X82100Y32090
X84100Y32090
X86100Y32090
X88100Y32090
X90108Y32090
X92108Y32090
X94108Y32090
X3110Y9108
X3110Y7108
X3110Y5108
X8100Y3610
X10100Y3610
X12100Y3610
X14100Y3610
X16100Y3610
X18100Y3610
T12
X15600Y10600
X15600Y16600
T13
X29100Y32100
X61600Y32100
T14
X57006Y25234
X54006Y25234
X51104Y25234
X47183Y25293
T15
X101667Y31313
X110722Y31313
X110722Y8478
X101667Y8478
T16
X15600Y13600
T17
X3100Y2600
X34600Y2600
X37600Y21600
X60100Y23600
X116100Y32600
X116100Y2600
X2600Y32600
M30
